# xmcd
# 
# Track frame offsets:
#     150
#     2545
#     18647
#     36296
#     51518
#     65597
#     80534
#     98182
#     115593
#     129996
#     144403
#     158744
#     176800
#     193781
# 
# Disc length: 2765
# 
# Revision: 3
# Processed by: cddbd v1.5.2PL0 Copyright (c) Steve Scherf et al.
# Submitted via: fre:ac v1.0.31
# 
DISCID=bb0acb0e
DTITLE=The Arcs - Yours, Dreamily
DYEAR=2015
DGENRE=Rock/Pop
TTITLE0=Once We Begin (Intro)
TTITLE1=Outta My Mind
TTITLE2=Put a Flower in Your Pocket
TTITLE3=Pistol Made of Bones
TTITLE4=Everything You Do (You Do for You)
TTITLE5=Stay in My Corner
TTITLE6=Cold Companion
TTITLE7=The Arc
TTITLE8=Nature's Child
TTITLE9=Velvet Ditch
TTITLE10=Chains of Love
TTITLE11=Come and Go
TTITLE12=Rosie (Ooh La La)
TTITLE13=Searching the Blue
EXTD=
EXTT0=
EXTT1=
EXTT2=
EXTT3=
EXTT4=
EXTT5=
EXTT6=
EXTT7=
EXTT8=
EXTT9=
EXTT10=
EXTT11=
EXTT12=
EXTT13=
PLAYORDER=
